<?xml version="1.0" encoding="UTF-8"?>
<svg width="247px" height="409px" viewBox="0 0 247 409" version="1.1" xmlns="http://www.w3.org/2000/svg" xmlns:xlink="http://www.w3.org/1999/xlink">
    <title>Untitled</title>
    <g id="Page-1" stroke="none" stroke-width="1" fill="none" fill-rule="evenodd" stroke-linecap="round" stroke-linejoin="round">
        <path d="M127.626099,6.29685974 C127.007228,6.29685974 124.712368,-1.55369882 105.857239,6.29685974 C93.2871529,11.5305654 81.6388374,19.4048839 70.9122925,29.9198151 C77.313368,33.0392384 82.053053,36.443164 85.1313477,40.1315918 C89.7487896,45.6642335 85.8383179,47.7757812 92.40625,55.6739807 C98.9741821,63.5721803 97.6721191,56.9736481 102.252838,76.526542 C104.438609,88.6960514 107.211141,113.268991 110.570435,150.245361 C114.41394,155.641805 122.183889,156.990916 133.88028,154.292694 C145.57667,151.594472 152.137177,146.453288 153.561798,138.869141 L147.334198,138.869141 C140.94807,70.7693644 137.302735,33.589977 136.398193,27.3309784 C135.041381,17.9424805 128.244969,6.29685974 127.626099,6.29685974 Z" id="Path" stroke="#000000" stroke-width="4"></path>
        <path d="M70.9122925,29.9198151 L48.6705627,49.9658203 C43.6248702,53.4584749 39.4630355,57.0465435 36.1850586,60.7300262 C31.2680932,66.2552503 27.0917252,72.781652 29.630249,74.1613312 C31.3225982,75.0811173 36.5125193,72.2372147 45.2000122,65.6296234 L61.1277161,55.914917 L74.0307922,49.9658203 L53.0498047,70.4803009 C42.6009586,80.6585518 36.9793766,86.3543628 36.1850586,87.5677338 C34.9935817,89.3877902 36.1850586,91.5402374 39.2631836,91.5402374 C42.3413086,91.5402374 46.8493978,89.1112358 61.1277161,79.2247638 C70.6465949,72.6337825 80.5087775,64.8638335 90.7142639,55.914917 L85.1313477,40.1315918 L70.9122925,29.9198151 Z" id="Path-2" stroke="#000000" stroke-width="4"></path>
        <path d="M98.0179749,169.173218 C98.0179749,213.153727 98.0179749,238.913615 98.0179749,246.452881 C98.0179749,257.76178 103.522552,264.598541 112.237045,264.598541 C120.951538,264.598541 155.784728,266.083384 161.501556,264.598541 C167.218385,263.113699 168.105011,260.004303 169.474854,249.732056 C170.844696,239.459808 168.105011,218.87294 164.803284,201.028778 C161.501556,183.184616 161.963685,168.271574 161.501556,162.937286 C161.193471,159.381095 159.757975,155.254925 157.195068,150.558777" id="Path-3" stroke="#000000" stroke-width="4"></path>
        <path d="M98.0179749,150.558777 L55.679657,183.773209 L22.0405884,220.944305 C10.5940161,236.673801 4.30277161,245.950514 3.16685486,248.774445 C1.46297973,253.010341 1.46297973,258.739532 6.83758545,258.739532 C10.4206559,258.739532 31.7788916,244.403229 70.9122925,215.730621 L35.0070801,248.774445 C25.081952,258.275484 19.6052064,263.77016 18.5768433,265.258471 C17.0342985,267.490939 6.11257708,277.232876 18.5768433,272.553314 C26.8863541,269.433606 38.2278356,261.507316 52.6012878,248.774445 C31.8343702,275.282405 20.4928887,290.314601 18.5768433,293.871033 C15.7027751,299.205681 19.1665202,309.449585 22.0405884,309.449585 C24.9146565,309.449585 55.6187672,287.979932 70.9122925,272.553314 C81.107976,262.268903 90.1432035,249.021466 98.0179749,232.811005" id="Path-4" stroke="#000000" stroke-width="4"></path>
        <polyline id="Path-5" stroke="#000000" stroke-width="4" points="105.486847 265.258471 108.057617 323.758148 112.237045 359.355652 124.6185 362.290741 133.926896 313.774606 133.926896 271.903015 131.188202 265.258471"></polyline>
        <path d="M112.237045,362.290741 L90.7142639,362.290741 L70.9122925,358.795227 L53.7452087,362.290741 C65.1899312,365.4723 70.9122925,367.06308 70.9122925,367.06308 L85.6834717,365.560333 L59.7891247,375.100159 L53.7452087,379.027496 L85.6834717,375.100159 C96.3357137,371.380157 101.661835,369.520157 101.661835,369.520157 L110.766235,365.351776 C99.6954549,371.850698 94.1600647,375.100159 94.1600647,375.100159 C82.0232857,382.346544 75.2284859,386.554948 73.7756653,387.725372 C71.5964343,389.481008 70.9122925,393.829071 70.9122925,393.829071 C70.9122925,393.829071 80.6812541,388.895213 100.219177,379.027496 C115.110287,371.411954 123.094957,366.85338 124.173187,365.351776 C125.251418,363.850172 121.272704,362.829827 112.237045,362.290741 Z" id="Path-6" stroke="#000000" stroke-width="4"></path>
        <path d="M142.516174,265.258471 L142.516174,269.525284 L156.47937,334.876465 L159.822113,356.156281 C158.982459,361.036613 158.982459,363.989636 159.822113,365.01535 C161.081595,366.553921 163.614959,360.865984 164.843811,362.290741 C165.663045,363.240579 165.663045,366.089537 164.843811,370.837616 C167.740787,382.981967 170.953261,391.704267 174.481232,397.004517 C178.009203,402.304766 182.638546,405.363624 188.369263,406.181091 L177.999786,386.797974 L174.481232,379.342682 L195.704041,383.04303 C202.293827,392.559396 207.247827,398.440092 210.56604,400.68512 C213.884253,402.930147 217.622087,402.930147 221.779541,400.68512 L200.939819,383.04303 L181.332245,367.912598 C192.174325,372.03197 200.771869,374.83182 207.124878,376.312149 C213.477886,377.792478 219.930045,377.792478 226.481354,376.312149 L188.369263,362.290741 L171.724396,358.795227 L174.481232,356.156281 C171.85969,334.017385 170.54892,322.947937 170.54892,322.947937 L171.724396,264.223648" id="Path-7" stroke="#000000" stroke-width="4"></path>
        <path d="M161.661774,144.759377 L206.692047,179.069946 L234.831604,204.907959 C242.606989,216.8573 245.793705,225.222708 244.391754,230.004181 C242.989803,234.785654 237.019669,235.913324 226.481354,233.387192 L206.692047,214.656555 L192.983673,204.907959 L214.028442,233.387192 C224.912483,248.296494 230.926653,257.480668 232.070953,260.939713 C233.787404,266.128279 232.446851,273.033669 226.481354,271.030441 C222.504356,269.694956 218.353385,264.311808 214.028442,254.880997 L206.692047,250.11322 L217.838165,265.258471 L226.481354,280.453476 C229.047342,286.096078 229.047342,291.071557 226.481354,295.379913 C222.632371,301.842448 222.632371,301.842448 214.028442,301.362213 C208.29249,301.042057 197.103372,289.007476 180.46109,265.258471 L177.234558,254.880997 L170.318176,248.899933" id="Path-8" stroke="#000000" stroke-width="4"></path>
        <path d="M102.604004,32.8127594 C100.862006,31.2162111 103.436002,26.4789304 105.486847,23.7332306 C107.537692,20.9875308 109.474613,19.9159088 112.237045,19.9159088 C114.999478,19.9159088 117.5,20.9132067 117.5,23.7332306 C117.5,26.5532545 116.213104,27.4962953 112.237045,29.9198151 C108.260986,32.3433348 104.346002,34.4093077 102.604004,32.8127594 Z" id="Path-9" stroke="#000000" stroke-width="4"></path>
        <path d="M116.405579,26.4012451 C116.405579,26.4012451 110.694626,25.3134003 110.694626,25.3134003 C110.694626,25.3134003 110.349762,20.3949509 110.349762,20.3949509 C110.349762,20.3949509 112.647725,20.4456762 117.243652,20.5471268 C116.684937,24.4498723 116.405579,26.4012451 116.405579,26.4012451 Z" id="Path-10" stroke="#000000" stroke-width="4"></path>
    </g>
</svg>